<svg width="85" height="40" viewBox="0 0 85 40" fill="none" xmlns="http://www.w3.org/2000/svg">
<path fill-rule="evenodd" clip-rule="evenodd" d="M19.9605 0.000121963C16.0065 0.00793788 12.1436 1.18755 8.85985 3.38992C5.57608 5.59229 3.01878 8.71858 1.51109 12.3738C0.00340301 16.029 -0.387027 20.049 0.389136 23.9261C1.1653 27.8031 3.07322 31.363 5.87184 34.1561C8.67046 36.9492 12.2342 38.8501 16.1127 39.6186C19.9912 40.3871 24.0105 39.9887 27.6628 38.4738C31.315 36.9589 34.4362 34.3954 36.6321 31.1073C38.828 27.8192 40 23.954 40 20.0001C40.004 17.3692 39.4881 14.7634 38.4819 12.3326C37.4758 9.90166 35.9992 7.69354 34.137 5.83506C32.2749 3.97658 30.0639 2.50437 27.631 1.50302C25.1981 0.501677 22.5913 -0.00907249 19.9605 0.000121963Z" fill="#00AFA9"/>
<path d="M85 0H45V40H85V0Z" fill="#FF5859"/>
</svg>
